<?xml version="1.0" encoding="utf-8"?>
<!-- Generator: Adobe Illustrator 25.1.0, SVG Export Plug-In . SVG Version: 6.00 Build 0)  -->
<svg version="1.1" id="레이어_1" xmlns="http://www.w3.org/2000/svg" xmlns:xlink="http://www.w3.org/1999/xlink" x="0px"
	 y="0px" viewBox="0 0 16 16" style="enable-background:new 0 0 16 16;" xml:space="preserve">
<style type="text/css">
	.st0{fill:#F70B0B;}
</style>
<path class="st0" d="M8,2.7L7.3,2c-1.7-1.7-4.8-1.1-5.9,1c-0.5,1-0.6,2.5,0.3,4.4c0.9,1.8,2.8,4,6.3,6.4c3.5-2.4,5.4-4.5,6.3-6.4
	c1-1.9,0.8-3.4,0.3-4.4c-1.1-2.2-4.2-2.8-5.9-1L8,2.7z M8,15C-7.3,4.9,3.3-3,7.8,1.1C7.9,1.2,7.9,1.3,8,1.3c0.1-0.1,0.1-0.1,0.2-0.2
	C12.7-3,23.3,4.9,8,15z"/>
</svg>
